<svg width="29" height="20" viewBox="0 0 29 20" fill="none" xmlns="http://www.w3.org/2000/svg">
<g clip-path="url(#clip0_213_49)">
<path d="M2.62217 10C2.62217 12.3206 3.87541 14.5462 6.1062 16.1872C8.33699 17.8281 11.3626 18.75 14.5174 18.75C17.6722 18.75 20.6978 17.8281 22.9286 16.1872C25.1594 14.5462 26.4126 12.3206 26.4126 10C26.4126 7.67936 25.1594 5.45376 22.9286 3.81282C20.6978 2.17187 17.6722 1.25 14.5174 1.25C11.3626 1.25 8.33699 2.17187 6.1062 3.81282C3.87541 5.45376 2.62217 7.67936 2.62217 10ZM28.1119 10C28.1119 12.6522 26.6797 15.1957 24.1302 17.0711C21.5807 18.9464 18.1229 20 14.5174 20C10.9119 20 7.45407 18.9464 4.9046 17.0711C2.35513 15.1957 0.922852 12.6522 0.922852 10C0.922852 7.34784 2.35513 4.8043 4.9046 2.92893C7.45407 1.05357 10.9119 0 14.5174 0C18.1229 0 21.5807 1.05357 24.1302 2.92893C26.6797 4.8043 28.1119 7.34784 28.1119 10ZM14.7655 6.24C12.7059 6.24 11.4909 7.39 11.4909 9.3675V10.6925C11.4909 12.6562 12.6855 13.77 14.7655 13.77C16.4291 13.77 17.5541 13.0375 17.7036 11.9975H19.9042V12.1138C19.7343 13.9237 17.6034 15.1975 14.7553 15.1975C11.202 15.1975 9.20023 13.5275 9.20023 10.6938V9.3525C9.20023 6.52625 11.2411 4.805 14.757 4.805C17.6135 4.805 19.7445 6.1225 19.9042 8.02V8.13H17.7036C17.5541 7.03125 16.3985 6.24 14.7655 6.24Z" fill="black"/>
</g>
<defs>
<clipPath id="clip0_213_49">
<rect width="27.1891" height="20" fill="white" transform="translate(0.922852)"/>
</clipPath>
</defs>
</svg>
