<svg width="45" height="45" viewBox="0 0 45 45" fill="none" xmlns="http://www.w3.org/2000/svg">
<g id="devicon:google" clip-path="url(#clip0_565_13)">
<path id="Vector" d="M15.6762 1.48008C11.18 3.03985 7.30246 6.00035 4.61317 9.92673C1.92388 13.8531 0.564579 18.5384 0.734914 23.2944C0.905249 28.0504 2.59625 32.6265 5.55953 36.3504C8.52281 40.0743 12.6022 42.7499 17.1984 43.984C20.9247 44.9455 24.8288 44.9877 28.575 44.107C31.9687 43.3447 35.1063 41.7142 37.6805 39.375C40.3597 36.8661 42.3043 33.6743 43.3055 30.143C44.3933 26.3027 44.5869 22.2642 43.8715 18.3375H22.9465V27.0176H35.0648C34.8226 28.402 34.3036 29.7233 33.5389 30.9025C32.7741 32.0816 31.7793 33.0944 30.6141 33.8801C29.1345 34.8593 27.4663 35.518 25.7168 35.8137C23.9623 36.14 22.1627 36.14 20.4082 35.8137C18.6298 35.4464 16.9476 34.7124 15.4687 33.6586C13.0927 31.9767 11.3086 29.5872 10.3711 26.8313C9.41797 24.0236 9.41797 20.9799 10.3711 18.1723C11.0385 16.2043 12.1417 14.4124 13.5984 12.9305C15.2655 11.2034 17.3761 9.9689 19.6986 9.36238C22.0211 8.75586 24.4658 8.80077 26.7645 9.49219C28.5602 10.0432 30.2024 11.0063 31.5598 12.3047C32.9262 10.9453 34.2902 9.58242 35.652 8.21602C36.3551 7.48125 37.1215 6.78164 37.8141 6.0293C35.7417 4.10104 33.3093 2.60052 30.6562 1.61367C25.8247 -0.14066 20.5382 -0.187806 15.6762 1.48008Z" fill="white"/>
<path id="Vector_2" d="M15.6762 1.48008C20.5378 -0.18894 25.8243 -0.143035 30.6562 1.61016C33.3098 2.60371 35.7411 4.11145 37.8105 6.04688C37.1074 6.79922 36.3656 7.50235 35.6484 8.23359C34.2844 9.59531 32.9215 10.9523 31.5598 12.3047C30.2024 11.0063 28.5602 10.0432 26.7644 9.49219C24.4666 8.79835 22.0219 8.75084 19.6988 9.35488C17.3757 9.95891 15.2638 11.1912 13.5949 12.9164C12.1382 14.3984 11.0349 16.1902 10.3676 18.1582L3.07969 12.5156C5.68831 7.3426 10.205 3.38563 15.6762 1.48008Z" fill="#E33629"/>
<path id="Vector_3" d="M1.14609 18.1055C1.53752 16.164 2.18786 14.284 3.07969 12.5156L10.3676 18.1723C9.41446 20.9799 9.41446 24.0236 10.3676 26.8312C7.93945 28.7062 5.51016 30.5906 3.07969 32.4844C0.847796 28.0417 0.167108 22.9799 1.14609 18.1055Z" fill="#F8BD00"/>
<path id="Vector_4" d="M22.9465 18.334H43.8715C44.5869 22.2607 44.3933 26.2992 43.3055 30.1395C42.3043 33.6708 40.3597 36.8625 37.6805 39.3715C35.3285 37.5363 32.966 35.7152 30.6141 33.8801C31.7801 33.0936 32.7754 32.0797 33.5402 30.8993C34.3049 29.7189 34.8235 28.3962 35.0648 27.0105H22.9465C22.943 24.1207 22.9465 21.2273 22.9465 18.334Z" fill="#587DBD"/>
<path id="Vector_5" d="M3.07617 32.4844C5.50664 30.6094 7.93594 28.725 10.3641 26.8313C11.3035 29.5882 13.0901 31.9778 15.4688 33.6586C16.9522 34.7075 18.6381 35.4355 20.4188 35.7961C22.1732 36.1224 23.9729 36.1224 25.7273 35.7961C27.4768 35.5004 29.145 34.8417 30.6246 33.8625C32.9766 35.6977 35.3391 37.5188 37.691 39.3539C35.1172 41.6944 31.9796 43.3261 28.5855 44.0895C24.8393 44.9701 20.9353 44.9279 17.209 43.9664C14.2618 43.1795 11.509 41.7923 9.12305 39.8918C6.59787 37.8866 4.53528 35.3599 3.07617 32.4844Z" fill="#319F43"/>
</g>
<defs>
<clipPath id="clip0_565_13">
<rect width="45" height="45" fill="white"/>
</clipPath>
</defs>
</svg>
