<svg width="45" height="45" viewBox="0 0 45 45" fill="none" xmlns="http://www.w3.org/2000/svg">
<path d="M9.84375 21.0938H37.9688C38.3417 21.0938 38.6994 21.2419 38.9631 21.5056C39.2268 21.7694 39.375 22.127 39.375 22.5C39.375 22.873 39.2268 23.2306 38.9631 23.4944C38.6994 23.7581 38.3417 23.9062 37.9688 23.9062H9.84375C9.47079 23.9062 9.1131 23.7581 8.84938 23.4944C8.58566 23.2306 8.4375 22.873 8.4375 22.5C8.4375 22.127 8.58566 21.7694 8.84938 21.5056C9.1131 21.2419 9.47079 21.0938 9.84375 21.0938Z" fill="black"/>
<path d="M10.426 22.4999L22.0894 34.1606C22.3535 34.4246 22.5018 34.7828 22.5018 35.1562C22.5018 35.5296 22.3535 35.8878 22.0894 36.1518C21.8254 36.4159 21.4673 36.5642 21.0938 36.5642C20.7204 36.5642 20.3623 36.4159 20.0982 36.1518L7.44195 23.4956C7.31099 23.3649 7.20709 23.2098 7.13619 23.0389C7.0653 22.8681 7.02881 22.6849 7.02881 22.4999C7.02881 22.315 7.0653 22.1318 7.13619 21.961C7.20709 21.7901 7.31099 21.6349 7.44195 21.5043L20.0982 8.84807C20.3623 8.58401 20.7204 8.43567 21.0938 8.43567C21.4673 8.43567 21.8254 8.58401 22.0894 8.84807C22.3535 9.11213 22.5018 9.47026 22.5018 9.8437C22.5018 10.2171 22.3535 10.5753 22.0894 10.8393L10.426 22.4999Z" fill="black"/>
</svg>
