<svg width="36" height="36" viewBox="0 0 36 36" fill="none" xmlns="http://www.w3.org/2000/svg">
<path d="M6.71399 19.4062V19.413C6.67609 19.5559 6.6104 19.6899 6.52067 19.8074C6.43094 19.9249 6.31893 20.0236 6.19105 20.0978C6.06316 20.172 5.9219 20.2202 5.77536 20.2398C5.62881 20.2593 5.47985 20.2498 5.33699 20.2118C4.36724 19.9552 4.53824 18.837 4.53824 18.837L4.57874 18.6975C4.57874 18.6975 4.63724 18.5085 4.68449 18.3713C5.26188 16.7523 6.11188 15.2441 7.19773 13.9118C9.21598 11.4503 12.6112 9 18 9C23.3887 9 26.784 11.4503 28.8045 13.9118C29.8903 15.2441 30.7403 16.7523 31.3177 18.3713C31.3661 18.5104 31.4111 18.6507 31.4527 18.792L31.4595 18.8212V18.8303L31.4617 18.8348C31.5331 19.1211 31.4891 19.424 31.3392 19.6782C31.1893 19.9324 30.9455 20.1176 30.6604 20.1937C30.3753 20.2699 30.0717 20.2309 29.815 20.0853C29.5583 19.9397 29.3691 19.699 29.2882 19.4152L29.286 19.4062L29.268 19.35C29.1404 18.9517 28.9902 18.5611 28.818 18.18C28.3594 17.1602 27.7694 16.2049 27.063 15.3382C25.3935 13.302 22.599 11.25 18 11.25C13.401 11.25 10.6087 13.302 8.93699 15.3382C8.02011 16.4643 7.30114 17.7379 6.81073 19.1048C6.78294 19.186 6.75668 19.2678 6.73199 19.35L6.71399 19.4062ZM12.375 21.375C12.375 19.8832 12.9676 18.4524 14.0225 17.3975C15.0774 16.3426 16.5081 15.75 18 15.75C19.4918 15.75 20.9226 16.3426 21.9775 17.3975C23.0324 18.4524 23.625 19.8832 23.625 21.375C23.625 22.8668 23.0324 24.2976 21.9775 25.3525C20.9226 26.4074 19.4918 27 18 27C16.5081 27 15.0774 26.4074 14.0225 25.3525C12.9676 24.2976 12.375 22.8668 12.375 21.375Z" fill="black"/>
</svg>
