<svg width="36" height="36" viewBox="0 0 36 36" fill="none" xmlns="http://www.w3.org/2000/svg">
<g id="fluent:eye-off-24-filled">
<path id="Vector" d="M3.33003 3.32999C3.1395 3.52047 3.02366 3.773 3.00356 4.04166C2.98347 4.31033 3.06046 4.57728 3.22053 4.79399L3.33003 4.91999L9.38103 10.9725C6.43057 13.0404 4.32435 16.1026 3.44853 19.5975C3.38099 19.8852 3.42938 20.1879 3.58323 20.4402C3.73708 20.6926 3.98404 20.8742 4.27073 20.9459C4.55742 21.0177 4.86082 20.9737 5.11536 20.8235C5.36989 20.6734 5.55513 20.4291 5.63103 20.1435C6.40938 17.0415 8.32638 14.3459 11.001 12.5925L13.716 15.3075C12.6315 16.4407 12.0339 17.9536 12.0512 19.5221C12.0685 21.0905 12.6993 22.5899 13.8086 23.6989C14.9178 24.808 16.4173 25.4385 17.9857 25.4555C19.5542 25.4726 21.067 24.8747 22.2 23.79L31.0785 32.67C31.2793 32.8713 31.5488 32.9891 31.8328 32.9998C32.1169 33.0105 32.3945 32.9132 32.6098 32.7276C32.8251 32.5419 32.9621 32.2817 32.9933 31.9991C33.0245 31.7165 32.9476 31.4326 32.778 31.2045L32.6685 31.0785L23.499 21.9075L23.5005 21.9045L13.0755 11.4855L13.0785 11.4825L11.379 9.78749L4.92003 3.32999C4.70909 3.11931 4.42315 3.00098 4.12503 3.00098C3.8269 3.00098 3.54096 3.11931 3.33003 3.32999ZM18 8.24999C16.5 8.24999 15.045 8.47199 13.6665 8.88749L15.522 10.7415C18.7313 10.106 22.0622 10.7281 24.8258 12.4791C27.5894 14.2301 29.5744 16.9762 30.3705 20.1495C30.4482 20.4329 30.6338 20.6746 30.8874 20.823C31.141 20.9714 31.4427 21.0146 31.7278 20.9435C32.0129 20.8724 32.2589 20.6925 32.4131 20.4424C32.5673 20.1922 32.6175 19.8917 32.553 19.605C31.7396 16.3612 29.8658 13.4821 27.2292 11.4248C24.5926 9.36762 21.3443 8.25019 18 8.24999ZM18.2925 13.515L23.994 19.215C23.9203 17.7268 23.2959 16.3193 22.2421 15.2658C21.1884 14.2124 19.7807 13.5883 18.2925 13.515Z" fill="black"/>
</g>
</svg>
