<svg width="36" height="36" viewBox="0 0 36 36" fill="none" xmlns="http://www.w3.org/2000/svg">
<g clip-path="url(#clip0_107_36)">
<path d="M32.625 36H3.375C1.5075 36 0 34.4925 0 32.625V5.625C0 3.7575 1.5075 2.25 3.375 2.25H32.625C34.4925 2.25 36 3.7575 36 5.625V32.625C36 34.4925 34.4925 36 32.625 36ZM3.375 4.5C2.745 4.5 2.25 4.995 2.25 5.625V32.625C2.25 33.255 2.745 33.75 3.375 33.75H32.625C33.255 33.75 33.75 33.255 33.75 32.625V5.625C33.75 4.995 33.255 4.5 32.625 4.5H3.375Z" fill="black"/>
<path d="M10.125 9C9.495 9 9 8.505 9 7.875V1.125C9 0.495 9.495 0 10.125 0C10.755 0 11.25 0.495 11.25 1.125V7.875C11.25 8.505 10.755 9 10.125 9ZM25.875 9C25.245 9 24.75 8.505 24.75 7.875V1.125C24.75 0.495 25.245 0 25.875 0C26.505 0 27 0.495 27 1.125V7.875C27 8.505 26.505 9 25.875 9ZM34.875 13.5H1.125C0.495 13.5 0 13.005 0 12.375C0 11.745 0.495 11.25 1.125 11.25H34.875C35.505 11.25 36 11.745 36 12.375C36 13.005 35.505 13.5 34.875 13.5Z" fill="black"/>
</g>
<defs>
<clipPath id="clip0_107_36">
<rect width="36" height="36" fill="white"/>
</clipPath>
</defs>
</svg>
