<svg width="36" height="36" viewBox="0 0 36 36" fill="none" xmlns="http://www.w3.org/2000/svg">
<path d="M12.375 30.375C12.9963 30.375 13.5 29.8713 13.5 29.25C13.5 28.6287 12.9963 28.125 12.375 28.125C11.7537 28.125 11.25 28.6287 11.25 29.25C11.25 29.8713 11.7537 30.375 12.375 30.375Z" stroke="black" stroke-width="2.25" stroke-linecap="round" stroke-linejoin="round"/>
<path d="M28.125 30.375C28.7463 30.375 29.25 29.8713 29.25 29.25C29.25 28.6287 28.7463 28.125 28.125 28.125C27.5037 28.125 27 28.6287 27 29.25C27 29.8713 27.5037 30.375 28.125 30.375Z" stroke="black" stroke-width="2.25" stroke-linecap="round" stroke-linejoin="round"/>
<path d="M3.375 5.625H7.875L11.25 24.75H29.25" stroke="black" stroke-width="2.25" stroke-linecap="round" stroke-linejoin="round"/>
<path d="M11.25 20.25H28.7888C28.9188 20.2501 29.0449 20.2051 29.1456 20.1227C29.2462 20.0402 29.3152 19.9255 29.3407 19.7979L31.3657 9.67289C31.382 9.59125 31.3801 9.50699 31.3599 9.42621C31.3397 9.34543 31.3019 9.27014 31.249 9.20576C31.1962 9.14138 31.1298 9.08953 31.0545 9.05395C30.9792 9.01837 30.897 8.99994 30.8137 9H9" stroke="black" stroke-width="2.25" stroke-linecap="round" stroke-linejoin="round"/>
</svg>
