<svg width="100" height="100" viewBox="0 0 100 100" fill="none" xmlns="http://www.w3.org/2000/svg">
<path d="M69.5312 12.5C61.4648 12.5 54.4023 15.9687 50 21.832C45.5977 15.9687 38.5352 12.5 30.4688 12.5C24.0478 12.5072 17.8918 15.0612 13.3515 19.6015C8.81117 24.1418 6.25724 30.2978 6.25 36.7188C6.25 64.0625 46.793 86.1953 48.5195 87.1094C48.9746 87.3542 49.4833 87.4823 50 87.4823C50.5167 87.4823 51.0254 87.3542 51.4805 87.1094C53.207 86.1953 93.75 64.0625 93.75 36.7188C93.7428 30.2978 91.1888 24.1418 86.6485 19.6015C82.1082 15.0612 75.9522 12.5072 69.5312 12.5ZM50 80.7812C42.8672 76.625 12.5 57.6914 12.5 36.7188C12.5062 31.955 14.4013 27.3882 17.7698 24.0198C21.1382 20.6513 25.705 18.7562 30.4688 18.75C38.0664 18.75 44.4453 22.7969 47.1094 29.2969C47.3448 29.87 47.7453 30.3603 48.26 30.7053C48.7747 31.0503 49.3804 31.2345 50 31.2345C50.6196 31.2345 51.2253 31.0503 51.74 30.7053C52.2547 30.3603 52.6552 29.87 52.8906 29.2969C55.5547 22.7852 61.9336 18.75 69.5312 18.75C74.295 18.7562 78.8618 20.6513 82.2302 24.0198C85.5987 27.3882 87.4938 31.955 87.5 36.7188C87.5 57.6602 57.125 76.6211 50 80.7812Z" fill="#DA251D"/>
</svg>
