<svg width="36" height="36" viewBox="0 0 36 36" fill="none" xmlns="http://www.w3.org/2000/svg">
<path d="M31.1611 22.5422L24.518 19.5652C24.217 19.4362 23.8886 19.3844 23.5625 19.4143C23.2364 19.4443 22.9229 19.5551 22.6505 19.7367C22.6228 19.7545 22.5965 19.7742 22.5717 19.7958L19.0997 22.7489C19.0637 22.7686 19.0236 22.7796 18.9826 22.781C18.9416 22.7825 18.9008 22.7744 18.8635 22.7574C16.6317 21.6802 14.3199 19.3824 13.2385 17.1816C13.2204 17.1448 13.2111 17.1044 13.2111 17.0635C13.2111 17.0225 13.2204 16.9821 13.2385 16.9453L16.2014 13.4297C16.2227 13.4037 16.2424 13.3765 16.2605 13.3481C16.4396 13.0746 16.5478 12.7608 16.5753 12.435C16.6028 12.1092 16.5487 11.7817 16.418 11.4821L13.462 4.85018C13.2942 4.45869 13.0039 4.1322 12.6347 3.91972C12.2655 3.70724 11.8374 3.62023 11.4145 3.67174C9.5769 3.91333 7.89008 4.81578 6.66933 6.21044C5.44858 7.60511 4.77741 9.39656 4.78127 11.25C4.78127 22.261 13.7391 31.2188 24.75 31.2188C26.6034 31.2223 28.3947 30.5511 29.7893 29.3304C31.1839 28.1097 32.0864 26.423 32.3283 24.5855C32.3797 24.1646 32.2939 23.7384 32.0836 23.3703C31.8733 23.0021 31.5497 22.7117 31.1611 22.5422ZM24.75 29.5313C14.67 29.5313 6.46877 21.33 6.46877 11.25C6.46407 9.80711 6.98487 8.41184 7.93386 7.32491C8.88286 6.23798 10.1951 5.53374 11.6255 5.34377H11.6578C11.7145 5.34483 11.7695 5.36298 11.8157 5.39586C11.8619 5.42873 11.897 5.47479 11.9166 5.52799L14.8838 12.1528C14.9007 12.1897 14.9095 12.2297 14.9095 12.2703C14.9095 12.3108 14.9007 12.3508 14.8838 12.3877L11.9152 15.9117C11.893 15.9369 11.8728 15.9637 11.8547 15.9919C11.6689 16.2755 11.5596 16.6022 11.5371 16.9405C11.5147 17.2787 11.58 17.6171 11.7267 17.9227C12.9741 20.4764 15.5475 23.0302 18.1294 24.2775C18.4368 24.4234 18.7768 24.4871 19.1161 24.4625C19.4555 24.4379 19.7827 24.3257 20.0658 24.1369C20.0925 24.1186 20.1192 24.0989 20.1445 24.0778L23.6152 21.1247C23.6494 21.1063 23.6873 21.0955 23.7261 21.0931C23.765 21.0906 23.8039 21.0966 23.8402 21.1106L30.4847 24.0877C30.539 24.1108 30.5846 24.1504 30.6151 24.2009C30.6457 24.2513 30.6596 24.3101 30.6549 24.3689C30.4659 25.7999 29.7623 27.1132 28.6756 28.0632C27.5889 29.0133 26.1935 29.5351 24.75 29.5313Z" fill="#DBD5C6"/>
</svg>
